HIERARCHY
ROOT Hips
{
	OFFSET -4.354967 87.784727 21.917690
	CHANNELS 6 Xposition Yposition Zposition Zrotation Yrotation Xrotation 
	JOINT Spine
	{
		OFFSET -0.000000 8.814246 -2.080107
		CHANNELS 3 Zrotation Yrotation Xrotation
		JOINT Spine1
		{
			OFFSET 0.000001 8.844141 -0.000000
			CHANNELS 3 Zrotation Yrotation Xrotation
			JOINT Spine2
			{
				OFFSET 0.000000 11.682268 0.000000
				CHANNELS 3 Zrotation Yrotation Xrotation
				JOINT Spine3
				{
					OFFSET -0.000000 11.746700 -0.000001
					CHANNELS 3 Zrotation Yrotation Xrotation
					JOINT Neck
					{
						OFFSET -0.000000 17.658264 0.000000
						CHANNELS 3 Zrotation Yrotation Xrotation
						JOINT Neck1
						{
							OFFSET 0.000000 5.101515 -0.000000
							CHANNELS 3 Zrotation Yrotation Xrotation
							JOINT Head
							{
								OFFSET 0.000000 5.101515 -0.000000
								CHANNELS 3 Zrotation Yrotation Xrotation
								JOINT HeadEnd
								{
									OFFSET -0.000000 11.655084 -0.000001
									CHANNELS 3 Zrotation Yrotation Xrotation
									End Site
									{
										OFFSET 0.000000 0.000000 0.000000
									}
								}
							}
						}
					}
					JOINT RightShoulder
					{
						OFFSET -2.625389 11.175209 -0.000000
						CHANNELS 3 Zrotation Yrotation Xrotation
						JOINT RightArm
						{
							OFFSET 0.000000 10.434715 -0.000000
							CHANNELS 3 Zrotation Yrotation Xrotation
							JOINT RightForeArm
							{
								OFFSET 0.000000 29.628420 -0.000000
								CHANNELS 3 Zrotation Yrotation Xrotation
								JOINT RightHand
								{
									OFFSET 0.000000 22.857611 0.000000
									CHANNELS 3 Zrotation Yrotation Xrotation
									JOINT RightHandThumb1
									{
										OFFSET -2.867323 3.959563 2.944291
										CHANNELS 3 Zrotation Yrotation Xrotation
										JOINT RightHandThumb2
										{
											OFFSET 0.000000 3.350399 0.000000
											CHANNELS 3 Zrotation Yrotation Xrotation
											JOINT RightHandThumb3
											{
												OFFSET 0.000000 3.756509 -0.000000
												CHANNELS 3 Zrotation Yrotation Xrotation
												JOINT RightHandThumb4
												{
													OFFSET 0.000000 3.147345 0.000000
													CHANNELS 3 Zrotation Yrotation Xrotation
													End Site
													{
														OFFSET 0.000000 0.000000 0.000000
													}
												}
											}
										}
									}
									JOINT RightHandIndex1
									{
										OFFSET -0.086752 10.030893 2.345280
										CHANNELS 3 Zrotation Yrotation Xrotation
										JOINT RightHandIndex2
										{
											OFFSET -0.000000 4.061090 0.000001
											CHANNELS 3 Zrotation Yrotation Xrotation
											JOINT RightHandIndex3
											{
												OFFSET 0.000000 3.248873 0.000000
												CHANNELS 3 Zrotation Yrotation Xrotation
												JOINT RightHandIndex4
												{
													OFFSET 0.000000 2.639709 0.000001
													CHANNELS 3 Zrotation Yrotation Xrotation
													End Site
													{
														OFFSET 0.000000 0.000000 0.000000
													}
												}
											}
										}
									}
									JOINT RightHandMiddle1
									{
										OFFSET 0.104102 9.502952 0.006768
										CHANNELS 3 Zrotation Yrotation Xrotation
										JOINT RightHandMiddle2
										{
											OFFSET -0.000000 4.568726 0.000000
											CHANNELS 3 Zrotation Yrotation Xrotation
											JOINT RightHandMiddle3
											{
												OFFSET -0.000000 3.654981 0.000000
												CHANNELS 3 Zrotation Yrotation Xrotation
												JOINT RightHandMiddle4
												{
													OFFSET 0.000000 2.741236 0.000000
													CHANNELS 3 Zrotation Yrotation Xrotation
													End Site
													{
														OFFSET 0.000000 0.000000 0.000000
													}
												}
											}
										}
									}
									JOINT RightHandRing1
									{
										OFFSET 0.086752 8.921708 -2.267442
										CHANNELS 3 Zrotation Yrotation Xrotation
										JOINT RightHandRing2
										{
											OFFSET -0.000000 4.061090 0.000000
											CHANNELS 3 Zrotation Yrotation Xrotation
											JOINT RightHandRing3
											{
												OFFSET 0.000000 3.654981 0.000000
												CHANNELS 3 Zrotation Yrotation Xrotation
												JOINT RightHandRing4
												{
													OFFSET -0.000000 2.741236 0.000000
													CHANNELS 3 Zrotation Yrotation Xrotation
													End Site
													{
														OFFSET 0.000000 0.000000 0.000000
													}
												}
											}
										}
									}
									JOINT RightHandPinky1
									{
										OFFSET -0.173504 7.976997 -4.467199
										CHANNELS 3 Zrotation Yrotation Xrotation
										JOINT RightHandPinky2
										{
											OFFSET 0.000000 3.350399 -0.000000
											CHANNELS 3 Zrotation Yrotation Xrotation
											JOINT RightHandPinky3
											{
												OFFSET 0.000001 2.842763 -0.000000
												CHANNELS 3 Zrotation Yrotation Xrotation
												JOINT RightHandPinky4
												{
													OFFSET 0.000000 2.639709 0.000000
													CHANNELS 3 Zrotation Yrotation Xrotation
													End Site
													{
														OFFSET 0.000000 0.000000 0.000000
													}
												}
											}
										}
									}
									JOINT RightForeArmEnd
									{
										OFFSET 0.000001 0.000000 0.000000
										CHANNELS 3 Zrotation Yrotation Xrotation
										End Site
										{
											OFFSET 0.000000 0.000000 0.000000
										}
									}
								}
								JOINT RightArmEnd
								{
									OFFSET 0.000000 0.000000 0.000000
									CHANNELS 3 Zrotation Yrotation Xrotation
									End Site
									{
										OFFSET 0.000000 0.000000 0.000000
									}
								}
							}
						}
					}
					JOINT LeftShoulder
					{
						OFFSET 2.625389 11.175211 0.000000
						CHANNELS 3 Zrotation Yrotation Xrotation
						JOINT LeftArm
						{
							OFFSET -0.000000 10.813635 -0.000000
							CHANNELS 3 Zrotation Yrotation Xrotation
							JOINT LeftForeArm
							{
								OFFSET 0.000001 28.724781 0.000000
								CHANNELS 3 Zrotation Yrotation Xrotation
								JOINT LeftHand
								{
									OFFSET 0.644384 25.716167 -0.328871
									CHANNELS 3 Zrotation Yrotation Xrotation
									JOINT LeftHandThumb1
									{
										OFFSET 2.867323 3.959563 2.944291
										CHANNELS 3 Zrotation Yrotation Xrotation
										JOINT LeftHandThumb2
										{
											OFFSET 0.000000 3.350399 -0.000001
											CHANNELS 3 Zrotation Yrotation Xrotation
											JOINT LeftHandThumb3
											{
												OFFSET -0.000000 3.756510 -0.000000
												CHANNELS 3 Zrotation Yrotation Xrotation
												JOINT LeftHandThumb4
												{
													OFFSET 0.000000 3.100000 0.000000
													CHANNELS 3 Zrotation Yrotation Xrotation
													End Site
													{
														OFFSET 0.000000 0.000000 0.000000
													}
												}
											}
										}
									}
									JOINT LeftHandIndex1
									{
										OFFSET 0.086752 10.030893 2.345280
										CHANNELS 3 Zrotation Yrotation Xrotation
										JOINT LeftHandIndex2
										{
											OFFSET -0.000001 4.061090 -0.000000
											CHANNELS 3 Zrotation Yrotation Xrotation
											JOINT LeftHandIndex3
											{
												OFFSET 0.000000 3.248873 -0.000000
												CHANNELS 3 Zrotation Yrotation Xrotation
												JOINT LeftHandIndex4
												{
													OFFSET 0.000000 2.639709 0.000000
													CHANNELS 3 Zrotation Yrotation Xrotation
													End Site
													{
														OFFSET 0.000000 0.000000 0.000000
													}
												}
											}
										}
									}
									JOINT LeftHandMiddle1
									{
										OFFSET -0.104102 9.502952 0.006769
										CHANNELS 3 Zrotation Yrotation Xrotation
										JOINT LeftHandMiddle2
										{
											OFFSET 0.000000 4.568727 -0.000000
											CHANNELS 3 Zrotation Yrotation Xrotation
											JOINT LeftHandMiddle3
											{
												OFFSET 0.000000 3.654981 0.000000
												CHANNELS 3 Zrotation Yrotation Xrotation
												JOINT LeftHandMiddle4
												{
													OFFSET -0.000000 2.741236 -0.000000
													CHANNELS 3 Zrotation Yrotation Xrotation
													End Site
													{
														OFFSET 0.000000 0.000000 0.000000
													}
												}
											}
										}
									}
									JOINT LeftHandRing1
									{
										OFFSET -0.086752 8.921708 -2.267442
										CHANNELS 3 Zrotation Yrotation Xrotation
										JOINT LeftHandRing2
										{
											OFFSET 0.000001 4.061090 -0.000000
											CHANNELS 3 Zrotation Yrotation Xrotation
											JOINT LeftHandRing3
											{
												OFFSET 0.000000 3.654981 -0.000000
												CHANNELS 3 Zrotation Yrotation Xrotation
												JOINT LeftHandRing4
												{
													OFFSET -0.000000 2.741236 -0.000000
													CHANNELS 3 Zrotation Yrotation Xrotation
													End Site
													{
														OFFSET 0.000000 0.000000 0.000000
													}
												}
											}
										}
									}
									JOINT LeftHandPinky1
									{
										OFFSET 0.173504 7.976997 -4.467199
										CHANNELS 3 Zrotation Yrotation Xrotation
										JOINT LeftHandPinky2
										{
											OFFSET -0.000000 3.350399 -0.000000
											CHANNELS 3 Zrotation Yrotation Xrotation
											JOINT LeftHandPinky3
											{
												OFFSET -0.000000 2.842763 0.000000
												CHANNELS 3 Zrotation Yrotation Xrotation
												JOINT LeftHandPinky4
												{
													OFFSET -0.000000 2.639709 0.000000
													CHANNELS 3 Zrotation Yrotation Xrotation
													End Site
													{
														OFFSET 0.000000 0.000000 0.000000
													}
												}
											}
										}
									}
									JOINT LeftForeArmEnd
									{
										OFFSET 0.000000 -0.000000 0.000000
										CHANNELS 3 Zrotation Yrotation Xrotation
										End Site
										{
											OFFSET 0.000000 0.000000 0.000000
										}
									}
								}
								JOINT LeftArmEnd
								{
									OFFSET -0.000000 0.000000 0.000000
									CHANNELS 3 Zrotation Yrotation Xrotation
									End Site
									{
										OFFSET 0.000000 0.000000 0.000000
									}
								}
							}
						}
					}
				}
			}
		}
	}
	JOINT RightUpLeg
	{
		OFFSET -11.289943 -0.000000 -0.000000
		CHANNELS 3 Zrotation Yrotation Xrotation
		JOINT RightLeg
		{
			OFFSET -0.000000 -38.200325 -0.000000
			CHANNELS 3 Zrotation Yrotation Xrotation
			JOINT RightFoot
			{
				OFFSET -0.000000 -39.900857 0.000000
				CHANNELS 3 Zrotation Yrotation Xrotation
				JOINT RightToeBase
				{
					OFFSET -0.000000 0.000000 15.261641
					CHANNELS 3 Zrotation Yrotation Xrotation
					JOINT RightToeBaseEnd
					{
						OFFSET 0.000000 0.000000 7.370709
						CHANNELS 3 Zrotation Yrotation Xrotation
						End Site
						{
							OFFSET 0.000000 0.000000 0.000000
						}
					}
				}
				JOINT RightLegEnd
				{
					OFFSET 0.000000 0.000000 -0.000000
					CHANNELS 3 Zrotation Yrotation Xrotation
					End Site
					{
						OFFSET 0.000000 0.000000 0.000000
					}
				}
			}
			JOINT RightUpLegEnd
			{
				OFFSET 0.000000 -0.000000 0.000000
				CHANNELS 3 Zrotation Yrotation Xrotation
				End Site
				{
					OFFSET 0.000000 0.000000 0.000000
				}
			}
		}
	}
	JOINT LeftUpLeg
	{
		OFFSET 11.315662 0.000000 0.000000
		CHANNELS 3 Zrotation Yrotation Xrotation
		JOINT LeftLeg
		{
			OFFSET 0.000000 -38.200325 -0.000000
			CHANNELS 3 Zrotation Yrotation Xrotation
			JOINT LeftFoot
			{
				OFFSET 0.000000 -39.900855 0.000000
				CHANNELS 3 Zrotation Yrotation Xrotation
				JOINT LeftToeBase
				{
					OFFSET 0.000000 0.000000 15.261641
					CHANNELS 3 Zrotation Yrotation Xrotation
					JOINT LeftToeBaseEnd
					{
						OFFSET 0.000000 -0.000000 7.539997
						CHANNELS 3 Zrotation Yrotation Xrotation
						End Site
						{
							OFFSET 0.000000 0.000000 0.000000
						}
					}
				}
				JOINT LeftLegEnd
				{
					OFFSET 0.000000 -0.000000 0.000000
					CHANNELS 3 Zrotation Yrotation Xrotation
					End Site
					{
						OFFSET 0.000000 0.000000 0.000000
					}
				}
			}
			JOINT LeftUpLegEnd
			{
				OFFSET -0.000000 -0.000000 0.000000
				CHANNELS 3 Zrotation Yrotation Xrotation
				End Site
				{
					OFFSET 0.000000 0.000000 0.000000
				}
			}
		}
	}
}
MOTION
Frames: 4
Frame Time: 0.016667
-25.334794 86.617976 4.228921 -2.172489 23.981846 -10.628822 4.003476 -0.156025 6.286557 -0.212950 0.253259 2.868731 -1.015363 0.830119 3.058066 -2.265808 0.783172 2.988263 6.684111 -10.580755 8.047136 -1.813242 -8.898450 -1.165593 1.602327 -1.010919 -16.340542 0.000000 0.000000 -0.000000 86.037170 0.691337 8.885531 58.474262 11.537472 -2.375776 -0.677938 22.279032 88.719589 -55.946552 -12.088600 19.157728 16.877888 31.080627 65.016174 -5.133063 -6.405436 -11.457681 -3.713811 -4.332696 -8.009839 0.000000 0.000014 0.000001 -13.473283 -6.222292 14.899802 -0.019223 0.568021 0.016350 -0.027184 0.059718 0.010470 0.000000 -0.000008 0.000000 -13.169824 -1.342491 10.148059 -0.176883 0.622926 -0.027388 -0.187438 0.104443 -0.030789 -0.000006 -0.000004 0.000015 -12.408403 6.787558 3.465292 -0.170693 -1.098229 0.037066 -0.179705 -0.093014 0.034161 -0.000000 0.000003 0.000057 -13.403672 15.332765 -2.281031 -0.458071 -2.063378 0.014077 -0.465747 -0.058538 0.013326 0.000046 0.000005 0.000001 -0.000000 -0.000000 -0.000008 -0.000002 0.000000 -0.000000 -84.858765 -0.216245 4.281872 -56.151031 -13.236739 -1.289848 -0.746318 -14.575734 89.515465 48.738487 15.457619 7.970696 -14.293283 -32.176067 67.904419 1.449583 1.521486 -2.983977 1.015099 1.050944 -2.078416 -0.000003 0.000003 -0.000071 27.152691 -13.226578 21.271360 -0.219541 0.591332 -0.003516 -0.203491 0.100476 -0.005440 0.000000 -0.000075 0.000002 30.014978 -8.625331 15.361135 -0.126184 0.620496 0.009053 -0.110902 0.099847 0.012170 -0.000012 0.000003 -0.000001 31.613119 -0.695744 8.227245 0.129923 -1.106600 -0.020828 0.146048 -0.090886 -0.015984 0.000002 -0.000032 0.000000 29.846888 8.149910 3.190077 0.258355 -2.084536 0.033009 0.267680 -0.063499 0.029313 0.000002 -0.000001 -0.000000 -0.000059 0.000023 0.000004 0.000022 -0.000004 -0.000010 -3.717621 -18.528437 11.715755 -0.268892 -0.784283 16.686846 7.024954 -23.474562 9.927232 -1.483107 1.739851 -17.100010 0.000018 -0.000016 0.000000 -0.000000 0.000001 0.000002 0.000000 0.000000 0.000017 11.417530 -14.222476 -7.699540 0.521026 1.028600 28.112240 -3.629333 3.858556 15.957203 1.247982 -0.742571 -22.607996 0.000001 0.000000 0.000000 -0.000045 -0.000002 0.000003 0.000003 0.000002 0.000010 
-25.334794 86.617976 4.228921 -2.172489 23.981846 -10.628822 4.003476 -0.156025 6.286557 -0.212950 0.253259 2.868731 -1.015363 0.830119 3.058066 -2.265808 0.783172 2.988263 6.684111 -10.580755 8.047136 -1.813242 -8.898450 -1.165593 1.602327 -1.010919 -16.340542 0.000000 0.000000 -0.000000 86.037170 0.691337 8.885531 58.474262 11.537472 -2.375776 -0.677938 22.279032 88.719589 -55.946552 -12.088600 19.157728 16.877888 31.080627 65.016174 -5.133063 -6.405436 -11.457681 -3.713811 -4.332696 -8.009839 0.000000 0.000014 0.000001 -13.473283 -6.222292 14.899802 -0.019223 0.568021 0.016350 -0.027184 0.059718 0.010470 0.000000 -0.000008 0.000000 -13.169824 -1.342491 10.148059 -0.176883 0.622926 -0.027388 -0.187438 0.104443 -0.030789 -0.000006 -0.000004 0.000015 -12.408403 6.787558 3.465292 -0.170693 -1.098229 0.037066 -0.179705 -0.093014 0.034161 -0.000000 0.000003 0.000057 -13.403672 15.332765 -2.281031 -0.458071 -2.063378 0.014077 -0.465747 -0.058538 0.013326 0.000046 0.000005 0.000001 -0.000000 -0.000000 -0.000008 -0.000002 0.000000 -0.000000 -84.858765 -0.216245 4.281872 -56.151031 -13.236739 -1.289848 -0.746318 -14.575734 89.515465 48.738487 15.457619 7.970696 -14.293283 -32.176067 67.904419 1.449583 1.521486 -2.983977 1.015099 1.050944 -2.078416 -0.000003 0.000003 -0.000071 27.152691 -13.226578 21.271360 -0.219541 0.591332 -0.003516 -0.203491 0.100476 -0.005440 0.000000 -0.000075 0.000002 30.014978 -8.625331 15.361135 -0.126184 0.620496 0.009053 -0.110902 0.099847 0.012170 -0.000012 0.000003 -0.000001 31.613119 -0.695744 8.227245 0.129923 -1.106600 -0.020828 0.146048 -0.090886 -0.015984 0.000002 -0.000032 0.000000 29.846888 8.149910 3.190077 0.258355 -2.084536 0.033009 0.267680 -0.063499 0.029313 0.000002 -0.000001 -0.000000 -0.000059 0.000023 0.000004 0.000022 -0.000004 -0.000010 -3.717621 -18.528437 11.715755 -0.268892 -0.784283 16.686846 7.024954 -23.474562 9.927232 -1.483107 1.739851 -17.100010 0.000018 -0.000016 0.000000 -0.000000 0.000001 0.000002 0.000000 0.000000 0.000017 11.417530 -14.222476 -7.699540 0.521026 1.028600 28.112240 -3.629333 3.858556 15.957203 1.247982 -0.742571 -22.607996 0.000001 0.000000 0.000000 -0.000045 -0.000002 0.000003 0.000003 0.000002 0.000010 
-25.334794 86.617976 4.228921 -2.172489 23.981846 -10.628822 4.003476 -0.156025 6.286557 -0.212950 0.253259 2.868731 -1.015363 0.830119 3.058066 -2.265808 0.783172 2.988263 6.684111 -10.580755 8.047136 -1.813242 -8.898450 -1.165593 1.602327 -1.010919 -16.340542 0.000000 0.000000 -0.000000 86.037170 0.691337 8.885531 58.474262 11.537472 -2.375776 -0.677938 22.279032 88.719589 -55.946552 -12.088600 19.157728 16.877888 31.080627 65.016174 -5.133063 -6.405436 -11.457681 -3.713811 -4.332696 -8.009839 0.000000 0.000014 0.000001 -13.473283 -6.222292 14.899802 -0.019223 0.568021 0.016350 -0.027184 0.059718 0.010470 0.000000 -0.000008 0.000000 -13.169824 -1.342491 10.148059 -0.176883 0.622926 -0.027388 -0.187438 0.104443 -0.030789 -0.000006 -0.000004 0.000015 -12.408403 6.787558 3.465292 -0.170693 -1.098229 0.037066 -0.179705 -0.093014 0.034161 -0.000000 0.000003 0.000057 -13.403672 15.332765 -2.281031 -0.458071 -2.063378 0.014077 -0.465747 -0.058538 0.013326 0.000046 0.000005 0.000001 -0.000000 -0.000000 -0.000008 -0.000002 0.000000 -0.000000 -84.858765 -0.216245 4.281872 -56.151031 -13.236739 -1.289848 -0.746318 -14.575734 89.515465 48.738487 15.457619 7.970696 -14.293283 -32.176067 67.904419 1.449583 1.521486 -2.983977 1.015099 1.050944 -2.078416 -0.000003 0.000003 -0.000071 27.152691 -13.226578 21.271360 -0.219541 0.591332 -0.003516 -0.203491 0.100476 -0.005440 0.000000 -0.000075 0.000002 30.014978 -8.625331 15.361135 -0.126184 0.620496 0.009053 -0.110902 0.099847 0.012170 -0.000012 0.000003 -0.000001 31.613119 -0.695744 8.227245 0.129923 -1.106600 -0.020828 0.146048 -0.090886 -0.015984 0.000002 -0.000032 0.000000 29.846888 8.149910 3.190077 0.258355 -2.084536 0.033009 0.267680 -0.063499 0.029313 0.000002 -0.000001 -0.000000 -0.000059 0.000023 0.000004 0.000022 -0.000004 -0.000010 -3.717621 -18.528437 11.715755 -0.268892 -0.784283 16.686846 7.024954 -23.474562 9.927232 -1.483107 1.739851 -17.100010 0.000018 -0.000016 0.000000 -0.000000 0.000001 0.000002 0.000000 0.000000 0.000017 11.417530 -14.222476 -7.699540 0.521026 1.028600 28.112240 -3.629333 3.858556 15.957203 1.247982 -0.742571 -22.607996 0.000001 0.000000 0.000000 -0.000045 -0.000002 0.000003 0.000003 0.000002 0.000010 
-22.555176 85.979176 4.708384 -1.712096 22.756231 -10.963771 3.777327 -0.027474 6.396149 -0.028618 0.290112 2.917645 -1.423379 2.157687 3.360944 -2.593128 1.369927 3.273602 7.103689 -11.412608 8.390583 -1.941504 -9.964001 -1.084598 1.953147 -0.973744 -16.658583 0.000000 -0.000000 0.000001 86.682518 0.587311 9.425721 59.395985 9.595107 0.151883 -0.642831 23.254753 79.269188 -49.412781 -8.602494 15.048942 16.558294 31.214174 65.373840 -4.689780 -5.802198 -10.425570 -3.386232 -3.925004 -7.282362 0.000000 0.000014 0.000001 -15.897455 -5.897637 14.954762 -0.087032 0.568132 0.012485 -0.096731 0.059144 0.007596 0.000000 -0.000008 0.000000 -15.514135 -0.967495 10.126530 -0.223729 0.619644 -0.029002 -0.233235 0.102435 -0.031332 -0.000006 -0.000004 0.000015 -14.509335 7.163834 3.515691 -0.223225 -1.096627 0.035118 -0.233366 -0.090505 0.031552 -0.000000 0.000002 0.000059 -14.972590 15.629293 -2.332252 -0.438644 -2.070758 0.006369 -0.448110 -0.061874 0.006995 0.000047 0.000005 0.000001 -0.000000 -0.000000 -0.000008 -0.000002 0.000000 -0.000000 -85.325661 -0.122605 4.106722 -58.484272 -12.660185 -1.173594 -0.689070 -14.505224 82.010101 45.053940 11.985510 2.869150 -14.230040 -32.209045 67.985046 1.338183 1.399083 -2.750983 0.937700 0.969081 -1.918669 -0.000003 0.000003 -0.000073 28.046841 -13.306887 20.060614 -0.180665 0.589431 -0.000039 -0.164031 0.097983 -0.002569 0.000000 -0.000077 0.000002 30.726984 -8.716618 14.514459 -0.086791 0.621161 0.010900 -0.072999 0.099286 0.013863 -0.000012 0.000003 -0.000001 32.009193 -0.757971 7.843467 0.172078 -1.107994 -0.024407 0.187563 -0.091248 -0.019577 0.000001 -0.000032 0.000000 29.967272 8.136674 3.226671 0.278560 -2.079057 0.038334 0.285978 -0.057530 0.033465 0.000002 -0.000001 -0.000000 -0.000061 0.000023 0.000004 0.000023 -0.000004 -0.000011 -5.635522 -16.474283 10.608762 -0.269752 -0.743122 20.969193 8.788175 -24.660177 9.102119 -1.686311 1.615654 -17.114985 0.000018 -0.000017 0.000000 -0.000000 0.000001 0.000002 0.000000 0.000000 0.000017 9.133243 -15.310567 -8.163280 0.462937 0.921292 30.379177 -3.461006 3.845695 14.156237 0.979959 -0.865787 -22.291031 0.000001 0.000000 0.000000 -0.000046 -0.000002 0.000003 0.000003 0.000002 0.000010 
